HIERARCHY
ROOT Hips
{
	OFFSET 0.000000 0.000000 0.000000
	CHANNELS 6 Xposition Yposition Zposition Zrotation Yrotation Xrotation 
	JOINT Spine1
	{
		OFFSET -0.013727 5.003763 -0.053727
		CHANNELS 3 Zrotation Yrotation Xrotation
		JOINT Spine2
		{
			OFFSET -0.000000 7.125302 -0.029825
			CHANNELS 3 Zrotation Yrotation Xrotation
			JOINT Chest
			{
				OFFSET -0.000001 7.550063 -0.815971
				CHANNELS 3 Zrotation Yrotation Xrotation
				JOINT Neck1
				{
					OFFSET -0.181677 26.311296 -0.553349
					CHANNELS 3 Zrotation Yrotation Xrotation
					JOINT Neck2
					{
						OFFSET -0.000003 7.709400 2.302585
						CHANNELS 3 Zrotation Yrotation Xrotation
						JOINT Head
						{
							OFFSET -0.000005 6.128913 1.953708
							CHANNELS 3 Zrotation Yrotation Xrotation
							JOINT HeadEnd
							{
								OFFSET 0.003598 16.065403 -1.835379
								CHANNELS 3 Zrotation Yrotation Xrotation
								End Site
								{
									OFFSET 0.000000 0.000000 0.000000
								}
							}
							JOINT Jaw
							{
								OFFSET 0.002637 0.475591 3.094940
								CHANNELS 3 Zrotation Yrotation Xrotation
								End Site
								{
									OFFSET 0.000000 0.000000 0.000000
								}
							}
							JOINT LeftEye
							{
								OFFSET 3.206381 5.380207 7.586883
								CHANNELS 3 Zrotation Yrotation Xrotation
								End Site
								{
									OFFSET 0.000000 0.000000 0.000000
								}
							}
							JOINT RightEye
							{
								OFFSET -3.222440 5.361866 7.558233
								CHANNELS 3 Zrotation Yrotation Xrotation
								End Site
								{
									OFFSET 0.000000 0.000000 0.000000
								}
							}
						}
					}
				}
				JOINT LeftShoulder
				{
					OFFSET 1.621652 23.237164 5.113413
					CHANNELS 3 Zrotation Yrotation Xrotation
					JOINT LeftArm
					{
						OFFSET 14.919845 -0.000001 -5.502326
						CHANNELS 3 Zrotation Yrotation Xrotation
						JOINT LeftForeArm
						{
							OFFSET 28.739309 0.000004 -0.002587
							CHANNELS 3 Zrotation Yrotation Xrotation
							JOINT LeftHand
							{
								OFFSET 27.093979 -0.000003 0.002609
								CHANNELS 3 Zrotation Yrotation Xrotation
								JOINT LeftHandThumb1
								{
									OFFSET 2.276480 -1.392046 3.191413
									CHANNELS 3 Zrotation Yrotation Xrotation
									JOINT LeftHandThumb2
									{
										OFFSET 4.012841 -1.828126 1.641655
										CHANNELS 3 Zrotation Yrotation Xrotation
										JOINT LeftHandThumb3
										{
											OFFSET 2.798516 0.000001 -0.000003
											CHANNELS 3 Zrotation Yrotation Xrotation
											JOINT LeftHandThumbEnd
											{
												OFFSET 3.180791 -0.000001 0.000003
												CHANNELS 3 Zrotation Yrotation Xrotation
												End Site
												{
													OFFSET 0.000000 0.000000 0.000000
												}
											}
										}
									}
								}
								JOINT LeftHandIndex1
								{
									OFFSET 3.247552 -0.531999 2.296169
									CHANNELS 3 Zrotation Yrotation Xrotation
									JOINT LeftHandIndex2
									{
										OFFSET 6.364580 0.012063 0.178600
										CHANNELS 3 Zrotation Yrotation Xrotation
										JOINT LeftHandIndex3
										{
											OFFSET 3.662367 0.000001 0.000000
											CHANNELS 3 Zrotation Yrotation Xrotation
											JOINT LeftHandIndex4
											{
												OFFSET 2.329242 0.000000 0.000005
												CHANNELS 3 Zrotation Yrotation Xrotation
												JOINT LeftHandIndexEnd
												{
													OFFSET 2.759619 -0.180540 -0.113024
													CHANNELS 3 Zrotation Yrotation Xrotation
													End Site
													{
														OFFSET 0.000000 0.000000 0.000000
													}
												}
											}
										}
									}
								}
								JOINT LeftHandMiddle1
								{
									OFFSET 3.163499 0.240982 1.000332
									CHANNELS 3 Zrotation Yrotation Xrotation
									JOINT LeftHandMiddle2
									{
										OFFSET 6.190777 -0.259277 -1.002548
										CHANNELS 3 Zrotation Yrotation Xrotation
										JOINT LeftHandMiddle3
										{
											OFFSET 4.356523 -0.000005 0.000000
											CHANNELS 3 Zrotation Yrotation Xrotation
											JOINT LeftHandMiddle4
											{
												OFFSET 2.996875 -0.000006 0.000001
												CHANNELS 3 Zrotation Yrotation Xrotation
												JOINT LeftHandMiddleEnd
												{
													OFFSET 2.304294 -0.294571 -0.031740
													CHANNELS 3 Zrotation Yrotation Xrotation
													End Site
													{
														OFFSET 0.000000 0.000000 0.000000
													}
												}
											}
										}
									}
								}
								JOINT LeftHandRing1
								{
									OFFSET 2.882641 -0.053651 -0.322543
									CHANNELS 3 Zrotation Yrotation Xrotation
									JOINT LeftHandRing2
									{
										OFFSET 5.854543 -0.486203 -1.373841
										CHANNELS 3 Zrotation Yrotation Xrotation
										JOINT LeftHandRing3
										{
											OFFSET 4.350580 0.000000 0.000003
											CHANNELS 3 Zrotation Yrotation Xrotation
											JOINT LeftHandRing4
											{
												OFFSET 2.651324 0.000008 0.000004
												CHANNELS 3 Zrotation Yrotation Xrotation
												JOINT LeftHandRingEnd
												{
													OFFSET 1.936110 0.077686 -0.000069
													CHANNELS 3 Zrotation Yrotation Xrotation
													End Site
													{
														OFFSET 0.000000 0.000000 0.000000
													}
												}
											}
										}
									}
								}
								JOINT LeftHandPinky1
								{
									OFFSET 2.865499 -0.310004 -1.600378
									CHANNELS 3 Zrotation Yrotation Xrotation
									JOINT LeftHandPinky2
									{
										OFFSET 5.087853 -1.331143 -1.771231
										CHANNELS 3 Zrotation Yrotation Xrotation
										JOINT LeftHandPinky3
										{
											OFFSET 3.070975 0.000004 0.000000
											CHANNELS 3 Zrotation Yrotation Xrotation
											JOINT LeftHandPinky4
											{
												OFFSET 1.549667 -0.000000 0.000000
												CHANNELS 3 Zrotation Yrotation Xrotation
												JOINT LeftHandPinkyEnd
												{
													OFFSET 1.944895 -0.157801 0.057219
													CHANNELS 3 Zrotation Yrotation Xrotation
													End Site
													{
														OFFSET 0.000000 0.000000 0.000000
													}
												}
											}
										}
									}
								}
							}
						}
					}
				}
				JOINT RightShoulder
				{
					OFFSET -1.380118 23.180307 5.214157
					CHANNELS 3 Zrotation Yrotation Xrotation
					JOINT RightArm
					{
						OFFSET -15.037197 0.000011 -5.545604
						CHANNELS 3 Zrotation Yrotation Xrotation
						JOINT RightForeArm
						{
							OFFSET -28.736639 0.000003 -0.002597
							CHANNELS 3 Zrotation Yrotation Xrotation
							JOINT RightHand
							{
								OFFSET -27.133617 -0.000001 0.002612
								CHANNELS 3 Zrotation Yrotation Xrotation
								JOINT RightHandThumb1
								{
									OFFSET -2.274036 -1.383990 3.163128
									CHANNELS 3 Zrotation Yrotation Xrotation
									JOINT RightHandThumb2
									{
										OFFSET -4.011429 -1.827467 1.640915
										CHANNELS 3 Zrotation Yrotation Xrotation
										JOINT RightHandThumb3
										{
											OFFSET -2.794934 -0.000002 -0.000003
											CHANNELS 3 Zrotation Yrotation Xrotation
											JOINT RightHandThumbEnd
											{
												OFFSET -3.183855 0.000004 -0.000000
												CHANNELS 3 Zrotation Yrotation Xrotation
												End Site
												{
													OFFSET 0.000000 0.000000 0.000000
												}
											}
										}
									}
								}
								JOINT RightHandIndex1
								{
									OFFSET -3.253269 -0.520059 2.282866
									CHANNELS 3 Zrotation Yrotation Xrotation
									JOINT RightHandIndex2
									{
										OFFSET -6.341918 0.012472 0.178265
										CHANNELS 3 Zrotation Yrotation Xrotation
										JOINT RightHandIndex3
										{
											OFFSET -3.654874 -0.000009 -0.000001
											CHANNELS 3 Zrotation Yrotation Xrotation
											JOINT RightHandIndex4
											{
												OFFSET -2.327586 0.000000 0.000000
												CHANNELS 3 Zrotation Yrotation Xrotation
												JOINT RightHandIndexEnd
												{
													OFFSET -2.761789 -0.180657 -0.113078
													CHANNELS 3 Zrotation Yrotation Xrotation
													End Site
													{
														OFFSET 0.000000 0.000000 0.000000
													}
												}
											}
										}
									}
								}
								JOINT RightHandMiddle1
								{
									OFFSET -3.168106 0.246593 1.001031
									CHANNELS 3 Zrotation Yrotation Xrotation
									JOINT RightHandMiddle2
									{
										OFFSET -6.180830 -0.258837 -1.000896
										CHANNELS 3 Zrotation Yrotation Xrotation
										JOINT RightHandMiddle3
										{
											OFFSET -4.348905 0.000002 -0.000000
											CHANNELS 3 Zrotation Yrotation Xrotation
											JOINT RightHandMiddle4
											{
												OFFSET -3.000242 -0.000003 -0.000003
												CHANNELS 3 Zrotation Yrotation Xrotation
												JOINT RightHandMiddleEnd
												{
													OFFSET -2.302519 -0.294372 -0.031706
													CHANNELS 3 Zrotation Yrotation Xrotation
													End Site
													{
														OFFSET 0.000000 0.000000 0.000000
													}
												}
											}
										}
									}
								}
								JOINT RightHandRing1
								{
									OFFSET -2.885694 -0.067951 -0.308858
									CHANNELS 3 Zrotation Yrotation Xrotation
									JOINT RightHandRing2
									{
										OFFSET -5.854197 -0.486133 -1.373732
										CHANNELS 3 Zrotation Yrotation Xrotation
										JOINT RightHandRing3
										{
											OFFSET -4.338814 -0.000005 -0.000000
											CHANNELS 3 Zrotation Yrotation Xrotation
											JOINT RightHandRing4
											{
												OFFSET -2.654906 -0.000003 0.000003
												CHANNELS 3 Zrotation Yrotation Xrotation
												JOINT RightHandRingEnd
												{
													OFFSET -1.933570 0.077524 -0.000052
													CHANNELS 3 Zrotation Yrotation Xrotation
													End Site
													{
														OFFSET 0.000000 0.000000 0.000000
													}
												}
											}
										}
									}
								}
								JOINT RightHandPinky1
								{
									OFFSET -2.866429 -0.342799 -1.584145
									CHANNELS 3 Zrotation Yrotation Xrotation
									JOINT RightHandPinky2
									{
										OFFSET -5.091371 -1.332053 -1.772385
										CHANNELS 3 Zrotation Yrotation Xrotation
										JOINT RightHandPinky3
										{
											OFFSET -3.062666 -0.000006 -0.000000
											CHANNELS 3 Zrotation Yrotation Xrotation
											JOINT RightHandPinky4
											{
												OFFSET -1.546526 0.000006 -0.000002
												CHANNELS 3 Zrotation Yrotation Xrotation
												JOINT RightHandPinkyEnd
												{
													OFFSET -1.945122 -0.157722 0.057211
													CHANNELS 3 Zrotation Yrotation Xrotation
													End Site
													{
														OFFSET 0.000000 0.000000 0.000000
													}
												}
											}
										}
									}
								}
							}
						}
					}
				}
			}
		}
	}
	JOINT LeftLeg
	{
		OFFSET 10.043214 -8.434526 2.595655
		CHANNELS 3 Zrotation Yrotation Xrotation
		JOINT LeftShin
		{
			OFFSET -0.000002 -43.221752 -0.802913
			CHANNELS 3 Zrotation Yrotation Xrotation
			JOINT LeftFoot
			{
				OFFSET 0.000001 -42.155094 -3.481524
				CHANNELS 3 Zrotation Yrotation Xrotation
				JOINT LeftToeBase
				{
					OFFSET -0.000000 -5.059475 13.231529
					CHANNELS 3 Zrotation Yrotation Xrotation
					JOINT LeftToeEnd
					{
						OFFSET -0.009607 -1.647615 6.513017
						CHANNELS 3 Zrotation Yrotation Xrotation
						End Site
						{
							OFFSET 0.000000 0.000000 0.000000
						}
					}
				}
			}
		}
	}
	JOINT RightLeg
	{
		OFFSET -10.047277 -8.295259 2.620317
		CHANNELS 3 Zrotation Yrotation Xrotation
		JOINT RightShin
		{
			OFFSET 0.000000 -43.362209 -0.805555
			CHANNELS 3 Zrotation Yrotation Xrotation
			JOINT RightFoot
			{
				OFFSET 0.000002 -42.117393 -3.478398
				CHANNELS 3 Zrotation Yrotation Xrotation
				JOINT RightToeBase
				{
					OFFSET -0.000000 -5.079609 13.284196
					CHANNELS 3 Zrotation Yrotation Xrotation
					JOINT RightToeEnd
					{
						OFFSET 0.009532 -1.634383 6.460591
						CHANNELS 3 Zrotation Yrotation Xrotation
						End Site
						{
							OFFSET 0.000000 0.000000 0.000000
						}
					}
				}
			}
		}
	}
}
MOTION
Frames: 5
Frame Time: 0.033333
-0.244868 93.595444 2.613602 -2.457066 -0.078619 2.707051 0.877799 -0.345583 0.090098 0.046518 -1.002010 -4.726670 0.728324 -3.417076 10.950892 8.359551 -2.120856 13.794904 -3.079363 -10.477783 -3.374314 2.398483 -13.024673 -11.110299 0.000077 -0.000023 0.000006 -0.007373 -0.051966 -0.041450 0.739787 -3.792952 -10.666126 -0.772864 3.706226 -10.654788 0.577552 -10.466620 7.390991 -54.553272 -53.143837 0.308805 179.848160 -46.916046 -179.361588 -11.268764 -5.954927 10.677364 -5.882103 9.861278 0.702589 -10.936857 -0.360575 7.156196 -0.000000 8.774814 -0.000001 -16.532431 17.871756 6.047081 -1.844031 2.498503 -2.507275 -10.163592 4.678940 4.621103 -20.975998 -0.000004 0.000001 -21.226255 2.451692 -3.593995 0.000000 -0.000006 -0.000000 -1.362681 2.240796 -0.746323 -21.334887 0.584908 3.008319 -13.821194 -0.000003 0.000001 -23.887131 -0.249080 -0.839482 -60.867249 2.368788 -1.361781 -0.294024 1.679686 0.833254 -14.218190 0.093215 1.300579 -34.211998 -0.287564 0.967167 -20.033180 0.964534 1.212840 -0.000001 -0.000000 -0.000000 -3.440384 0.788232 0.501655 -15.928167 -3.167308 2.999703 -6.338817 0.000001 0.000001 -18.123415 3.648175 -4.905663 -0.000004 -0.000000 -0.000002 3.543942 17.249865 7.882163 -0.877664 17.633310 -48.904957 -22.512451 85.210541 -21.021870 7.286244 1.147490 26.713686 2.243539 -5.255032 -3.180155 14.282879 -0.826593 6.952497 -0.000003 -12.690592 -0.000000 16.641466 -16.603703 1.924457 1.665664 -1.955921 -2.878296 4.727795 -4.170584 4.993919 11.020513 0.000003 -0.000001 12.109033 -3.735710 -2.866779 0.000000 0.000000 -0.000000 1.291986 -1.928548 -1.498088 14.800114 0.567468 3.865603 14.242554 -1.341735 -6.660650 19.631941 0.143926 -0.648243 50.027901 -1.032781 -6.381078 0.353027 -1.511149 -0.031940 20.222773 3.684307 2.316629 18.787249 0.000004 -0.000001 10.751612 -0.479868 1.397904 0.000000 0.000000 0.000001 3.273804 0.305947 -0.580110 21.486797 11.830364 2.266131 8.162916 0.000001 0.000000 18.399054 -3.798981 -4.940567 0.000003 -0.000001 -0.000000 20.689238 17.272537 -10.934980 -0.231163 -0.936257 29.784992 -20.932123 -4.299309 -15.312546 1.613406 -1.981978 -0.268345 -0.000000 0.000001 0.000002 -12.438217 -28.621643 -22.540482 0.457138 0.669891 29.569613 15.575303 13.561107 -0.975813 -1.423127 0.706811 0.540314 0.000000 0.000000 -0.000001 
-0.296743 93.546974 2.770582 -2.507826 -0.232594 2.651855 0.881439 -0.326249 0.070389 0.066607 -1.061885 -4.750516 0.778429 -3.406400 11.001787 8.433685 -2.161745 13.780594 -3.118435 -10.436087 -3.379721 2.272224 -12.897052 -11.045193 0.000077 -0.000023 0.000007 -0.002513 -0.063609 -0.033187 0.740807 -3.802522 -10.649199 -0.762126 3.691429 -10.645729 0.509689 -10.321156 7.339931 -54.707741 -52.893692 0.679785 179.780334 -47.234680 -179.519241 -11.346497 -6.080120 9.844451 -5.882100 9.861278 0.702590 -10.936858 -0.360575 7.156197 0.000001 8.774813 -0.000001 -16.575575 17.889181 5.940429 -1.844030 2.498502 -2.507275 -10.163590 4.678940 4.621105 -20.975992 -0.000003 0.000002 -21.226248 2.451692 -3.593993 0.000001 -0.000006 -0.000000 -1.362679 2.240796 -0.746322 -21.334892 0.584909 3.008320 -13.821197 -0.000002 0.000002 -23.887129 -0.249079 -0.839481 -60.739578 2.286196 -1.411683 -0.294026 1.679686 0.833256 -14.218192 0.093215 1.300580 -34.211998 -0.287563 0.967170 -20.033176 0.964536 1.212842 -0.000001 -0.000001 0.000000 -3.440386 0.788232 0.501655 -15.928164 -3.167306 2.999704 -6.338817 -0.000001 0.000001 -18.123411 3.648175 -4.905660 -0.000004 0.000000 -0.000002 3.589967 17.280518 7.722959 -0.897932 17.637831 -49.234188 -21.680283 85.833733 -20.210903 7.688076 1.042198 26.213892 2.243540 -5.255033 -3.180156 14.282873 -0.826593 6.952497 -0.000003 -12.690590 0.000000 16.867537 -16.656376 1.863307 1.665665 -1.955921 -2.878297 4.727795 -4.170582 4.993919 11.020512 0.000003 -0.000001 12.109031 -3.735709 -2.866779 0.000000 -0.000000 -0.000000 1.291984 -1.928548 -1.498089 14.800107 0.567470 3.865604 14.242553 -1.341735 -6.660650 19.631935 0.143926 -0.648243 50.016457 -1.102249 -6.323674 0.353029 -1.511149 -0.031940 20.222767 3.684306 2.316628 18.787243 0.000004 0.000000 10.751608 -0.479868 1.397905 0.000002 -0.000001 0.000000 3.273805 0.305947 -0.580110 21.486788 11.830361 2.266132 8.162916 0.000003 0.000001 18.399046 -3.798978 -4.940565 0.000003 0.000001 -0.000001 20.851162 17.313549 -10.688939 -0.224300 -0.927357 29.799349 -20.970495 -4.208923 -15.454532 1.608006 -2.013642 -0.348861 0.000000 0.000001 0.000002 -12.424498 -28.544111 -22.609905 0.445187 0.624558 29.972866 15.614485 13.887729 -1.080058 -1.429401 0.679908 0.482988 0.000000 0.000000 -0.000001 
-0.298603 93.476555 2.857484 -2.569374 -0.326772 2.612983 0.921558 -0.316513 0.020536 0.073138 -1.112785 -4.757519 0.841266 -3.391453 10.984682 8.453662 -2.177678 13.849583 -3.099510 -10.359360 -3.391760 2.137361 -12.774663 -10.990318 0.000077 -0.000023 0.000006 0.002330 -0.063191 -0.031913 0.740501 -3.808571 -10.653125 -0.749851 3.691917 -10.651705 0.452377 -10.247581 7.266714 -54.936852 -52.610245 0.993856 179.853836 -47.594475 -179.759811 -11.324297 -6.205431 9.045798 -5.882102 9.861278 0.702590 -10.936860 -0.360575 7.156197 0.000001 8.774812 -0.000002 -16.548462 17.863335 5.839405 -1.844029 2.498503 -2.507275 -10.163587 4.678938 4.621106 -20.975994 -0.000004 0.000002 -21.226250 2.451692 -3.593992 0.000001 -0.000006 -0.000000 -1.362679 2.240795 -0.746323 -21.334894 0.584908 3.008321 -13.821195 -0.000003 0.000003 -23.887129 -0.249079 -0.839479 -60.618088 2.288070 -1.448407 -0.294024 1.679686 0.833255 -14.218189 0.093213 1.300581 -34.211998 -0.287563 0.967171 -20.033175 0.964535 1.212842 -0.000001 -0.000001 0.000000 -3.440386 0.788232 0.501655 -15.928165 -3.167307 2.999704 -6.338817 -0.000001 0.000002 -18.123413 3.648175 -4.905660 -0.000004 -0.000000 -0.000002 3.522500 17.297705 7.470309 -0.719409 17.739389 -49.611706 -21.735119 86.532303 -20.324930 8.058089 1.117356 25.710579 2.243539 -5.255032 -3.180155 14.282878 -0.826593 6.952495 -0.000003 -12.690588 0.000000 16.980433 -16.664379 1.842335 1.665668 -1.955920 -2.878296 4.727794 -4.170584 4.993918 11.020513 0.000003 -0.000001 12.109034 -3.735710 -2.866780 0.000000 0.000000 -0.000001 1.291982 -1.928547 -1.498087 14.800111 0.567468 3.865603 14.242554 -1.341734 -6.660648 19.631941 0.143925 -0.648244 50.106113 -1.072284 -6.263258 0.353027 -1.511149 -0.031940 20.222773 3.684307 2.316627 18.787249 0.000005 -0.000001 10.751611 -0.479867 1.397905 0.000001 0.000000 0.000000 3.273805 0.305948 -0.580110 21.486797 11.830365 2.266132 8.162918 0.000001 0.000000 18.399057 -3.798980 -4.940567 0.000003 0.000000 -0.000001 20.989679 17.473902 -10.646366 -0.219802 -0.922969 30.046356 -20.993559 -4.275318 -15.608069 1.603035 -2.020530 -0.376797 0.000000 -0.000000 0.000002 -12.406841 -28.579897 -22.706354 0.458338 0.606371 30.324409 15.643748 14.245200 -1.162359 -1.429953 0.672600 0.430689 0.000000 0.000000 -0.000001 
-0.226994 93.381157 2.870886 -2.637766 -0.416361 2.578504 0.978985 -0.297163 -0.024137 0.077722 -1.169320 -4.760993 0.902062 -3.396494 10.938281 8.438661 -2.190108 13.957774 -3.074866 -10.226314 -3.407114 2.027979 -12.679411 -10.919083 0.000077 -0.000022 0.000006 0.005674 -0.063036 -0.034503 0.735269 -3.798349 -10.650012 -0.743612 3.691720 -10.646620 0.411608 -10.155675 7.225065 -54.979073 -52.342281 1.078535 -179.878479 -47.981907 179.881393 -11.079082 -6.342183 8.308862 -5.882102 9.861279 0.702589 -10.936861 -0.360574 7.156197 0.000001 8.774813 -0.000001 -16.451681 17.865133 5.820025 -1.844033 2.498501 -2.507276 -10.163591 4.678940 4.621104 -20.975992 -0.000004 0.000002 -21.226255 2.451692 -3.593995 0.000000 -0.000006 -0.000000 -1.362681 2.240797 -0.746323 -21.334892 0.584908 3.008320 -13.821198 -0.000003 0.000002 -23.887131 -0.249077 -0.839482 -60.432732 2.330303 -1.496815 -0.294026 1.679686 0.833255 -14.218194 0.093214 1.300579 -34.211998 -0.287565 0.967169 -20.033180 0.964534 1.212841 0.000000 -0.000000 0.000000 -3.440386 0.788233 0.501655 -15.928167 -3.167308 2.999704 -6.338817 0.000000 0.000001 -18.123413 3.648176 -4.905662 -0.000004 0.000000 -0.000002 3.313335 17.303988 7.098910 -0.274227 18.054365 -50.039841 -24.181070 87.356026 -22.900536 8.522305 1.290629 24.804186 2.243539 -5.255032 -3.180155 14.282877 -0.826593 6.952495 -0.000003 -12.690590 -0.000001 17.027637 -16.699921 1.855941 1.665665 -1.955920 -2.878297 4.727793 -4.170583 4.993918 11.020513 0.000002 -0.000002 12.109033 -3.735710 -2.866780 0.000000 -0.000000 -0.000000 1.291983 -1.928548 -1.498088 14.800114 0.567468 3.865603 14.242556 -1.341735 -6.660650 19.631941 0.143926 -0.648244 50.228592 -1.005055 -6.213192 0.353028 -1.511150 -0.031940 20.222773 3.684306 2.316626 18.787249 0.000005 -0.000002 10.751611 -0.479868 1.397903 0.000000 -0.000000 0.000001 3.273805 0.305947 -0.580110 21.486794 11.830363 2.266130 8.162916 0.000003 -0.000000 18.399054 -3.798980 -4.940569 0.000003 -0.000001 -0.000000 21.097790 17.724771 -10.781146 -0.232516 -0.906702 30.553226 -20.945696 -4.492265 -15.821261 1.600406 -2.037823 -0.394094 0.000000 -0.000000 0.000002 -12.399728 -28.632959 -22.837118 0.481295 0.613396 30.616745 15.754189 14.555838 -1.190387 -1.432528 0.684908 0.399948 -0.000000 -0.000000 -0.000001 
-0.102810 93.264137 2.875855 -2.711403 -0.473283 2.520639 1.044555 -0.276002 -0.052409 0.081871 -1.224834 -4.758405 0.967091 -3.410539 10.880509 8.384040 -2.186335 14.112195 -3.076458 -10.060508 -3.426071 1.921991 -12.585727 -10.807472 0.000077 -0.000023 0.000006 0.004686 -0.043956 -0.036723 0.726756 -3.777769 -10.650984 -0.735454 3.693633 -10.647298 0.400553 -10.071099 7.194527 -54.853783 -52.169350 1.054119 -179.617859 -48.470810 179.544174 -10.748305 -6.511273 7.646388 -5.882098 9.861279 0.702590 -10.936854 -0.360575 7.156198 0.000001 8.774814 -0.000002 -16.289351 17.879759 5.847898 -1.844030 2.498502 -2.507276 -10.163589 4.678939 4.621105 -20.975992 -0.000004 0.000003 -21.226248 2.451692 -3.593993 0.000000 -0.000006 -0.000000 -1.362683 2.240797 -0.746323 -21.334885 0.584907 3.008320 -13.821193 -0.000003 0.000003 -23.887123 -0.249078 -0.839480 -60.169674 2.396516 -1.549158 -0.294025 1.679686 0.833255 -14.218189 0.093214 1.300581 -34.212002 -0.287563 0.967172 -20.033173 0.964535 1.212842 -0.000001 0.000001 -0.000000 -3.440385 0.788233 0.501654 -15.928164 -3.167306 2.999705 -6.338816 0.000000 0.000001 -18.123411 3.648176 -4.905661 -0.000004 0.000000 -0.000002 2.925847 17.316637 6.535242 0.470200 18.557915 -50.541767 -36.264420 88.360039 -35.181477 9.095416 1.541749 23.180841 2.243539 -5.255033 -3.180154 14.282875 -0.826593 6.952495 -0.000002 -12.690593 0.000000 17.102852 -16.783756 1.877605 1.665664 -1.955919 -2.878296 4.727794 -4.170584 4.993919 11.020512 0.000002 -0.000001 12.109033 -3.735711 -2.866779 0.000000 -0.000000 0.000000 1.291984 -1.928547 -1.498087 14.800113 0.567468 3.865603 14.242553 -1.341736 -6.660648 19.631939 0.143926 -0.648244 50.430695 -0.947405 -6.210260 0.353028 -1.511150 -0.031940 20.222769 3.684306 2.316627 18.787245 0.000006 -0.000001 10.751611 -0.479867 1.397904 0.000000 0.000001 0.000000 3.273805 0.305948 -0.580110 21.486788 11.830362 2.266131 8.162916 0.000003 0.000001 18.399054 -3.798979 -4.940566 0.000003 -0.000000 0.000000 21.184265 17.978247 -10.987318 -0.238195 -0.893263 31.218996 -20.881004 -4.798695 -16.100574 1.599907 -2.037811 -0.402623 0.000000 -0.000000 0.000002 -12.445307 -28.666309 -22.895655 0.521904 0.640376 30.840290 15.946821 14.764039 -1.257302 -1.435920 0.711715 0.345143 0.000000 0.000000 -0.000001 
